<svg xmlns="http://www.w3.org/2000/svg" xmlns:xlink="http://www.w3.org/1999/xlink" width="76.155" height="40.102" viewBox="0 0 76.155 40.102">
  <defs>
    <clipPath id="clip-path">
      <rect id="Rectangle_127" data-name="Rectangle 127" width="76.155" height="40.102" fill="#273545"/>
    </clipPath>
  </defs>
  <g id="Group_151" data-name="Group 151" transform="translate(0 0)">
    <g id="Group_150" data-name="Group 150" transform="translate(0 0)" clip-path="url(#clip-path)">
      <path id="Path_179" data-name="Path 179" d="M56.642,23.007H64.67c.029.3.064.6.086.906a11.457,11.457,0,0,0,11.137,10.5c.065,0,.131.007.191.011.08.3.1,7.5.02,8.027a19.05,19.05,0,0,1-8.58-2,19.568,19.568,0,0,1-6.833-5.6c-.305.357-.584.7-.876,1.023a19.345,19.345,0,0,1-9.831,5.993,19.015,19.015,0,0,1-4.771.581c-8.615-.008-17.23.011-25.845-.01A18.907,18.907,0,0,1,6.78,37.732,19.308,19.308,0,0,1,.1,24.969,19.4,19.4,0,0,1,.056,21.48a18.775,18.775,0,0,1,1.836-6.847A19.4,19.4,0,0,1,10.2,5.9a18.746,18.746,0,0,1,5.88-2.054,20.659,20.659,0,0,1,3.517-.307q12.561,0,25.12,0h.494v8.035H23.32c-1.315,0-2.63-.022-3.945,0A11.4,11.4,0,0,0,8.149,24.389a11.425,11.425,0,0,0,9.058,9.788,12.005,12.005,0,0,0,2.393.236c8.508,0,17.015-.019,25.523,0a11.5,11.5,0,0,0,11.249-8.9,9.477,9.477,0,0,0,.269-2.512" transform="translate(0 -2.349)" fill="#273545"/>
      <path id="Path_180" data-name="Path 180" d="M175.674,5.218a5.217,5.217,0,1,1-10.434-.03,5.217,5.217,0,0,1,10.434.03" transform="translate(-109.778 -0.001)" fill="#273545"/>
    </g>
  </g>
</svg>
